<?xml version="1.0" standalone="no"?>
<!DOCTYPE svg PUBLIC "-//W3C//DTD SVG 1.1//EN" "http://www.w3.org/Graphics/SVG/1.1/DTD/svg11.dtd">
<svg class="icon" width="16px" height="16.00px" viewBox="0 0 1024 1024" version="1.1" xmlns="http://www.w3.org/2000/svg">
  <title>copy</title>
  <path fill="#000000" d="M115.2 333.7216v511.3856c0 35.5328 28.7744 64.3072 64.3072 64.3072h511.3856c35.5328 0 64.3072-28.7744 64.3072-64.3072V333.7216c0-35.5328-28.7744-64.3072-64.3072-64.3072H179.5072c-35.5328 0-64.3072 28.7744-64.3072 64.3072z m128-141.1072V166.912c0-71.168 60.416-127.8464 133.7856-127.8464h474.8288c73.3184 0 133.7856 56.6784 133.7856 127.744v538.112c0 71.0656-60.3136 127.744-133.3248 127.744h-20.2752v12.4928a141.056 141.056 0 0 1-141.1072 141.1072H179.5072A141.056 141.056 0 0 1 38.4 845.1072V333.7216a141.056 141.056 0 0 1 141.1072-141.1072H243.2z m76.8 0h370.8928a141.056 141.056 0 0 1 141.1072 141.1072v422.0928h20.2752c31.6416 0 56.5248-23.3984 56.5248-50.944V166.7584c0-27.4944-24.9856-50.944-56.9856-50.944H376.9856c-32.0512 0-56.9856 23.3984-56.9856 51.0464v25.7536z"  />
</svg>